<svg width="508" height="74" viewBox="0 0 508 74" version="1.1" xmlns="http://www.w3.org/2000/svg" xmlns:xlink="http://www.w3.org/1999/xlink" xmlns:figma="http://www.figma.com/figma/ns">
<title>C4M53R14L5</title>
<desc>Created using Figma</desc>
<g id="Canvas" transform="translate(-757 1075)" figma:type="canvas">
<g id="C4M53R14L5" style="mix-blend-mode:normal;" figma:type="text">
<use xlink:href="#path0_fill" transform="translate(751 -1091)" fill="#FF725C" style="mix-blend-mode:normal;"/>
<mask id="mask0_outline_out">
<rect id="mask0_outline_inv" fill="white" x="6" y="16" width="508" height="74" transform="translate(751 -1091)"/>
<use xlink:href="#path0_fill" fill="black" transform="translate(751 -1091)"/>
</mask>
<g mask="url(#mask0_outline_out)">
<use xlink:href="#path1_stroke_2x" transform="translate(751 -1091)" fill="#FF725C" style="mix-blend-mode:normal;"/>
</g>
</g>
</g>
<defs>
<path id="path0_fill" d="M 53.3 75.2C 51.5 79.6 48.9667 83 45.7 85.4C 42.4333 87.8 37.5333 89 31 89C 22.8 89 16.8667 86.5 13.2 81.5C 9.53333 76.4333 7.7 68.5667 7.7 57.9L 7.7 48.1C 7.7 37.4333 9.53333 29.6 13.2 24.6C 16.8667 19.5333 22.8 17 31 17C 37.5333 17 42.4333 18.2 45.7 20.6C 48.9667 23 51.5 26.4 53.3 30.8L 50.6 32.1C 49.0667 28.2333 46.9 25.2667 44.1 23.2C 41.3 21.0667 36.9333 20 31 20C 27.7333 20 24.9333 20.4333 22.6 21.3C 20.2667 22.1 18.1667 23.5 16.3 25.5C 14.4333 27.5 13.0333 30.4 12.1 34.2C 11.1667 37.9333 10.7 42.5667 10.7 48.1L 10.7 57.9C 10.7 63.4333 11.1667 68.1 12.1 71.9C 13.0333 75.6333 14.4333 78.5 16.3 80.5C 18.1667 82.5 20.2667 83.9333 22.6 84.8C 24.9333 85.6 27.7333 86 31 86C 36.9333 86 41.3 84.9667 44.1 82.9C 46.9 80.7667 49.0667 77.7667 50.6 73.9L 53.3 75.2ZM 92.3914 88L 89.3914 88L 89.3914 67.6L 61.9914 67.6L 61.9914 64.6L 88.8914 18L 92.3914 18L 92.3914 64.6L 100.391 64.6L 100.391 67.6L 92.3914 67.6L 92.3914 88ZM 89.3914 64.6L 89.3914 23.1L 65.4914 64.6L 89.3914 64.6ZM 123.188 85L 162.587 85L 162.587 25.1L 140.088 73.3L 117.587 25L 117.587 88L 114.587 87.9L 114.587 17.9L 117.587 17.9L 140.088 66.2L 162.587 18L 165.588 17.9L 165.588 88L 123.188 87.9L 123.188 85ZM 189.388 39.8L 200.288 39.8C 206.488 39.8 211.888 42.1333 216.488 46.8C 221.088 51.4667 223.388 57.3 223.388 64.3C 223.388 71.3667 221.288 77.2667 217.088 82C 212.955 86.6667 207.455 89 200.588 89C 197.388 89 194.488 88.6 191.888 87.8C 189.288 86.9333 187.255 85.9 185.788 84.7C 184.388 83.5 183.188 82.3 182.188 81.1C 181.188 79.9 180.555 78.8667 180.288 78L 179.788 76.8L 182.588 75.6C 182.655 75.8667 182.788 76.2333 182.988 76.7C 183.255 77.1667 183.855 78 184.788 79.2C 185.722 80.4 186.788 81.4667 187.988 82.4C 189.255 83.3333 190.988 84.1667 193.188 84.9C 195.455 85.6333 197.922 86 200.588 86C 206.722 86 211.555 83.9333 215.088 79.8C 218.622 75.6 220.388 70.4333 220.388 64.3C 220.388 58.4333 218.355 53.4 214.288 49.2C 210.288 44.9333 205.488 42.8 199.888 42.8L 186.388 42.8L 186.388 18L 215.988 18L 215.988 21L 189.388 21L 189.388 39.8ZM 237.411 18L 276.611 18L 255.511 44.8C 258.511 45.2 261.311 45.9 263.911 46.9C 266.511 47.8333 268.944 49.1667 271.211 50.9C 273.478 52.5667 275.278 54.7667 276.611 57.5C 277.944 60.2333 278.611 63.3333 278.611 66.8C 278.611 73.6667 276.544 79.1 272.411 83.1C 268.344 87.0333 262.811 89 255.811 89C 252.611 89 249.611 88.5667 246.811 87.7C 244.011 86.8333 241.744 85.8 240.011 84.6C 238.344 83.4 236.878 82.2 235.611 81C 234.344 79.8 233.444 78.7667 232.911 77.9L 232.211 76.6L 235.011 75.4C 235.211 75.6667 235.478 76.0667 235.811 76.6C 236.144 77.0667 236.944 77.9 238.211 79.1C 239.478 80.3 240.844 81.3667 242.311 82.3C 243.778 83.2333 245.711 84.1 248.111 84.9C 250.578 85.6333 253.144 86 255.811 86C 262.144 86 267.011 84.3 270.411 80.9C 273.878 77.4333 275.611 72.7333 275.611 66.8C 275.611 61.2667 273.711 56.9667 269.911 53.9C 266.111 50.8333 261.178 48.8 255.111 47.8L 250.111 47L 270.411 21L 237.411 21L 237.411 18ZM 302.075 85L 329.675 85L 317.575 51.8L 323.175 48.6C 327.775 46.0667 330.075 42.0333 330.075 36.5C 330.075 26.1667 322.208 21 306.475 21L 297.275 21L 297.275 88L 294.275 88L 294.275 18L 306.475 18C 315.275 18 321.908 19.6333 326.375 22.9C 330.842 26.1 333.075 30.6333 333.075 36.5C 333.075 43.1667 330.275 48.0667 324.675 51.2L 321.275 53.1L 333.975 88L 302.075 88L 302.075 85ZM 355.455 88L 352.455 88L 352.455 28.9L 347.155 47.2L 344.055 47.2L 352.455 18L 355.455 18L 355.455 88ZM 399.13 88L 396.13 88L 396.13 67.6L 368.73 67.6L 368.73 64.6L 395.63 18L 399.13 18L 399.13 64.6L 407.13 64.6L 407.13 67.6L 399.13 67.6L 399.13 88ZM 396.13 64.6L 396.13 23.1L 372.23 64.6L 396.13 64.6ZM 463.126 85L 463.126 88L 421.326 88L 421.326 18L 424.326 18L 424.326 85L 463.126 85ZM 478.548 39.8L 489.448 39.8C 495.648 39.8 501.048 42.1333 505.648 46.8C 510.248 51.4667 512.548 57.3 512.548 64.3C 512.548 71.3667 510.448 77.2667 506.248 82C 502.115 86.6667 496.615 89 489.748 89C 486.548 89 483.648 88.6 481.048 87.8C 478.448 86.9333 476.415 85.9 474.948 84.7C 473.548 83.5 472.348 82.3 471.348 81.1C 470.348 79.9 469.715 78.8667 469.448 78L 468.948 76.8L 471.748 75.6C 471.815 75.8667 471.948 76.2333 472.148 76.7C 472.415 77.1667 473.015 78 473.948 79.2C 474.882 80.4 475.948 81.4667 477.148 82.4C 478.415 83.3333 480.148 84.1667 482.348 84.9C 484.615 85.6333 487.082 86 489.748 86C 495.882 86 500.715 83.9333 504.248 79.8C 507.782 75.6 509.548 70.4333 509.548 64.3C 509.548 58.4333 507.515 53.4 503.448 49.2C 499.448 44.9333 494.648 42.8 489.048 42.8L 475.548 42.8L 475.548 18L 505.148 18L 505.148 21L 478.548 21L 478.548 39.8Z"/>
<path id="path1_stroke_2x" d="M 53.3 75.2L 54.2255 75.5786L 54.582 74.7074L 53.7338 74.299L 53.3 75.2ZM 45.7 85.4L 45.1079 84.5941L 45.1079 84.5941L 45.7 85.4ZM 13.2 81.5L 12.3899 82.0863L 12.3936 82.0914L 13.2 81.5ZM 13.2 24.6L 14.0064 25.1914L 14.0101 25.1863L 13.2 24.6ZM 45.7 20.6L 46.2921 19.7941L 46.2921 19.7941L 45.7 20.6ZM 53.3 30.8L 53.7338 31.701L 54.582 31.2926L 54.2255 30.4214L 53.3 30.8ZM 50.6 32.1L 49.6704 32.4686L 50.0663 33.4669L 51.0338 33.001L 50.6 32.1ZM 44.1 23.2L 43.494 23.9954L 43.5 24L 43.5061 24.0046L 44.1 23.2ZM 22.6 21.3L 22.9243 22.2459L 22.9363 22.2418L 22.9482 22.2374L 22.6 21.3ZM 12.1 34.2L 13.0702 34.4425L 13.0711 34.4385L 12.1 34.2ZM 12.1 71.9L 11.1289 72.1385L 11.1299 72.1425L 12.1 71.9ZM 16.3 80.5L 17.0311 79.8177L 17.0311 79.8177L 16.3 80.5ZM 22.6 84.8L 22.2518 85.7374L 22.2637 85.7418L 22.2757 85.7459L 22.6 84.8ZM 44.1 82.9L 44.6939 83.7046L 44.7 83.7L 44.706 83.6954L 44.1 82.9ZM 50.6 73.9L 51.0338 72.999L 50.0663 72.5331L 49.6704 73.5314L 50.6 73.9ZM 52.3745 74.8214C 50.6294 79.108 48.2619 82.2905 45.1079 84.5941L 46.2921 86.2059C 49.6714 83.7095 52.3706 80.092 54.2255 75.5786L 52.3745 74.8214ZM 45.1079 84.5941C 42.0894 86.8118 37.4403 88 31 88L 31 90C 37.6263 90 42.7773 88.7882 46.2921 86.2059L 45.1079 84.5941ZM 31 88C 23.0063 88 17.427 85.573 14.0064 80.9086L 12.3936 82.0914C 16.3064 87.427 22.5937 90 31 90L 31 88ZM 14.0101 80.9137C 10.527 76.1007 8.7 68.4894 8.7 57.9L 6.7 57.9C 6.7 68.6439 8.53963 76.7659 12.3899 82.0863L 14.0101 80.9137ZM 8.7 57.9L 8.7 48.1L 6.7 48.1L 6.7 57.9L 8.7 57.9ZM 8.7 48.1C 8.7 37.5089 10.5277 29.9351 14.0064 25.1914L 12.3936 24.0086C 8.53897 29.2649 6.7 37.3578 6.7 48.1L 8.7 48.1ZM 14.0101 25.1863C 17.4326 20.4571 23.0112 18 31 18L 31 16C 22.5888 16 16.3008 18.6096 12.3899 24.0137L 14.0101 25.1863ZM 31 18C 37.4403 18 42.0894 19.1882 45.1079 21.4059L 46.2921 19.7941C 42.7773 17.2118 37.6263 16 31 16L 31 18ZM 45.1079 21.4059C 48.2619 23.7095 50.6294 26.892 52.3745 31.1786L 54.2255 30.4214C 52.3706 25.908 49.6714 22.2905 46.2921 19.7941L 45.1079 21.4059ZM 52.8662 29.899L 50.1662 31.199L 51.0338 33.001L 53.7338 31.701L 52.8662 29.899ZM 51.5296 31.7314C 49.9422 27.7503 47.6089 24.5613 44.6939 22.3954L 43.5061 24.0046C 46.1911 25.972 48.1911 28.7164 49.6704 32.4686L 51.5296 31.7314ZM 44.706 22.4046C 41.648 20.0746 37.0161 19 31 19L 31 21C 36.8506 21 40.952 22.0587 43.494 23.9954L 44.706 22.4046ZM 31 19C 27.6566 19.0029 24.6815 19.4656 22.2518 20.3626L 22.9482 22.2374C 25.1852 21.4011 27.81 20.9971 31 21L 31 19ZM 22.2757 20.3541C 19.8235 21.2036 17.5194 22.7377 15.5689 24.8177L 17.0311 26.1823C 18.8139 24.2623 20.7099 22.9964 22.9243 22.2459L 22.2757 20.3541ZM 15.5689 24.8177C 13.5461 26.985 12.0865 30.0626 11.1289 33.9615L 13.0711 34.4385C 13.9802 30.7374 15.3206 28.015 17.0311 26.1823L 15.5689 24.8177ZM 11.1299 33.9575C 10.1815 37.7615 9.70126 42.5165 9.7 48.1L 11.7 48.1C 11.6987 42.6168 12.1518 38.1052 13.0701 34.4425L 11.1299 33.9575ZM 9.7 48.1L 9.7 57.9L 11.7 57.9L 11.7 48.1L 9.7 48.1ZM 9.7 57.9C 9.70124 63.4831 10.1811 68.2694 11.1289 72.1385L 13.0711 71.6615C 12.1522 67.9306 11.6988 63.3835 11.7 57.9L 9.7 57.9ZM 11.1299 72.1425C 12.0885 75.9771 13.549 79.0181 15.5689 81.1823L 17.0311 79.8177C 15.3176 77.9819 13.9782 75.2895 13.0701 71.6575L 11.1299 72.1425ZM 15.5689 81.1823C 17.5153 83.2588 19.8073 84.8216 22.2518 85.7374L 22.9482 83.8626C 20.726 83.0451 18.818 81.7412 17.0311 79.8177L 15.5689 81.1823ZM 22.2757 85.7459C 24.6994 86.5723 27.6624 86.9975 31 87L 31 85C 27.8042 85.0025 25.1672 84.6277 22.9243 83.8541L 22.2757 85.7459ZM 31 87C 37.0115 87 41.6379 85.9601 44.6939 83.7046L 43.5061 82.0954C 40.9621 83.9732 36.8551 85 31 85L 31 87ZM 44.706 83.6954C 47.6161 81.4647 49.9435 78.2474 51.5296 74.2686L 49.6704 73.5314C 48.1898 77.2859 46.1839 80.0687 43.494 82.1046L 44.706 83.6954ZM 50.1662 74.801L 52.8662 76.101L 53.7338 74.299L 51.0338 72.999L 50.1662 74.801ZM 92.3914 88L 92.3914 89L 93.3914 89L 93.3914 88L 92.3914 88ZM 89.3914 88L 88.3914 88L 88.3914 89L 89.3914 89L 89.3914 88ZM 89.3914 67.6L 90.3914 67.6L 90.3914 66.6L 89.3914 66.6L 89.3914 67.6ZM 61.9914 67.6L 60.9914 67.6L 60.9914 68.6L 61.9914 68.6L 61.9914 67.6ZM 61.9914 64.6L 61.1253 64.1001L 60.9914 64.3321L 60.9914 64.6L 61.9914 64.6ZM 88.8914 18L 88.8914 17L 88.314 17L 88.0253 17.5001L 88.8914 18ZM 92.3914 18L 93.3914 18L 93.3914 17L 92.3914 17L 92.3914 18ZM 92.3914 64.6L 91.3914 64.6L 91.3914 65.6L 92.3914 65.6L 92.3914 64.6ZM 100.391 64.6L 101.391 64.6L 101.391 63.6L 100.391 63.6L 100.391 64.6ZM 100.391 67.6L 100.391 68.6L 101.391 68.6L 101.391 67.6L 100.391 67.6ZM 92.3914 67.6L 92.3914 66.6L 91.3914 66.6L 91.3914 67.6L 92.3914 67.6ZM 89.3914 64.6L 89.3914 65.6L 90.3914 65.6L 90.3914 64.6L 89.3914 64.6ZM 89.3914 23.1L 90.3914 23.1L 90.3914 19.3598L 88.5248 22.6009L 89.3914 23.1ZM 65.4914 64.6L 64.6248 64.1009L 63.7615 65.6L 65.4914 65.6L 65.4914 64.6ZM 92.3914 87L 89.3914 87L 89.3914 89L 92.3914 89L 92.3914 87ZM 90.3914 88L 90.3914 67.6L 88.3914 67.6L 88.3914 88L 90.3914 88ZM 89.3914 66.6L 61.9914 66.6L 61.9914 68.6L 89.3914 68.6L 89.3914 66.6ZM 62.9914 67.6L 62.9914 64.6L 60.9914 64.6L 60.9914 67.6L 62.9914 67.6ZM 62.8575 65.0999L 89.7575 18.4999L 88.0253 17.5001L 61.1253 64.1001L 62.8575 65.0999ZM 88.8914 19L 92.3914 19L 92.3914 17L 88.8914 17L 88.8914 19ZM 91.3914 18L 91.3914 64.6L 93.3914 64.6L 93.3914 18L 91.3914 18ZM 92.3914 65.6L 100.391 65.6L 100.391 63.6L 92.3914 63.6L 92.3914 65.6ZM 99.3914 64.6L 99.3914 67.6L 101.391 67.6L 101.391 64.6L 99.3914 64.6ZM 100.391 66.6L 92.3914 66.6L 92.3914 68.6L 100.391 68.6L 100.391 66.6ZM 91.3914 67.6L 91.3914 88L 93.3914 88L 93.3914 67.6L 91.3914 67.6ZM 90.3914 64.6L 90.3914 23.1L 88.3914 23.1L 88.3914 64.6L 90.3914 64.6ZM 88.5248 22.6009L 64.6248 64.1009L 66.358 65.0991L 90.258 23.5991L 88.5248 22.6009ZM 65.4914 65.6L 89.3914 65.6L 89.3914 63.6L 65.4914 63.6L 65.4914 65.6ZM 123.188 85L 123.188 84L 122.188 84L 122.188 85L 123.188 85ZM 162.587 85L 162.587 86L 163.587 86L 163.587 85L 162.587 85ZM 162.587 25.1L 163.587 25.1L 161.681 24.677L 162.587 25.1ZM 140.088 73.3L 139.181 73.7223L 140.087 75.6661L 140.994 73.723L 140.088 73.3ZM 117.587 25L 118.494 24.5777L 116.587 25L 117.587 25ZM 117.587 88L 117.554 88.9994L 118.587 89.0339L 118.587 88L 117.587 88ZM 114.587 87.9L 113.587 87.9L 113.587 88.8672L 114.554 88.8994L 114.587 87.9ZM 114.587 17.9L 114.587 16.9L 113.587 16.9L 113.587 17.9L 114.587 17.9ZM 117.587 17.9L 118.494 17.4777L 118.225 16.9L 117.587 16.9L 117.587 17.9ZM 140.088 66.2L 139.181 66.6223L 140.087 68.5661L 140.994 66.623L 140.088 66.2ZM 162.587 18L 162.554 17.0006L 161.941 17.021L 161.681 17.577L 162.587 18ZM 165.588 17.9L 166.588 17.9L 166.588 16.8661L 165.554 16.9006L 165.588 17.9ZM 165.588 88L 165.585 89L 166.588 89.0024L 166.588 88L 165.588 88ZM 123.188 87.9L 122.188 87.9L 122.188 88.8976L 123.185 88.9L 123.188 87.9ZM 123.188 86L 162.587 86L 162.587 84L 123.188 84L 123.188 86ZM 163.587 85L 163.587 25.1L 161.587 25.1L 161.587 85L 163.587 85ZM 161.681 24.677L 139.181 72.877L 140.994 73.723L 163.494 25.523L 161.681 24.677ZM 140.994 72.8777L 118.494 24.5777L 116.681 25.4223L 139.181 73.7223L 140.994 72.8777ZM 116.587 25L 116.587 88L 118.587 88L 118.587 25L 116.587 25ZM 117.621 87.0006L 114.621 86.9006L 114.554 88.8994L 117.554 88.9994L 117.621 87.0006ZM 115.587 87.9L 115.587 17.9L 113.587 17.9L 113.587 87.9L 115.587 87.9ZM 114.587 18.9L 117.587 18.9L 117.587 16.9L 114.587 16.9L 114.587 18.9ZM 116.681 18.3223L 139.181 66.6223L 140.994 65.7777L 118.494 17.4777L 116.681 18.3223ZM 140.994 66.623L 163.494 18.423L 161.681 17.577L 139.181 65.777L 140.994 66.623ZM 162.621 18.9994L 165.621 18.8994L 165.554 16.9006L 162.554 17.0006L 162.621 18.9994ZM 164.588 17.9L 164.588 88L 166.588 88L 166.588 17.9L 164.588 17.9ZM 165.59 87L 123.19 86.9L 123.185 88.9L 165.585 89L 165.59 87ZM 124.188 87.9L 124.188 85L 122.188 85L 122.188 87.9L 124.188 87.9ZM 189.388 39.8L 188.388 39.8L 188.388 40.8L 189.388 40.8L 189.388 39.8ZM 216.488 46.8L 217.2 46.098L 217.2 46.098L 216.488 46.8ZM 217.088 82L 216.34 81.3363L 216.34 81.337L 217.088 82ZM 191.888 87.8L 191.572 88.7487L 191.583 88.7524L 191.594 88.7558L 191.888 87.8ZM 185.788 84.7L 185.137 85.4593L 185.146 85.4667L 185.155 85.474L 185.788 84.7ZM 182.188 81.1L 182.957 80.4598L 182.957 80.4598L 182.188 81.1ZM 180.288 78L 181.244 77.7059L 181.23 77.6599L 181.211 77.6154L 180.288 78ZM 179.788 76.8L 179.394 75.8809L 178.484 76.2708L 178.865 77.1846L 179.788 76.8ZM 182.588 75.6L 183.558 75.3575L 183.274 74.2183L 182.194 74.6809L 182.588 75.6ZM 182.988 76.7L 182.069 77.0939L 182.092 77.1465L 182.12 77.1961L 182.988 76.7ZM 184.788 79.2L 185.578 78.5861L 185.578 78.5861L 184.788 79.2ZM 187.988 82.4L 187.374 83.1894L 187.385 83.1973L 187.395 83.2051L 187.988 82.4ZM 193.188 84.9L 192.872 85.8487L 192.88 85.8514L 193.188 84.9ZM 215.088 79.8L 215.848 80.4498L 215.854 80.4438L 215.088 79.8ZM 214.288 49.2L 213.559 49.8839L 213.564 49.8898L 213.57 49.8956L 214.288 49.2ZM 186.388 42.8L 185.388 42.8L 185.388 43.8L 186.388 43.8L 186.388 42.8ZM 186.388 18L 186.388 17L 185.388 17L 185.388 18L 186.388 18ZM 215.988 18L 216.988 18L 216.988 17L 215.988 17L 215.988 18ZM 215.988 21L 215.988 22L 216.988 22L 216.988 21L 215.988 21ZM 189.388 21L 189.388 20L 188.388 20L 188.388 21L 189.388 21ZM 189.388 40.8L 200.288 40.8L 200.288 38.8L 189.388 38.8L 189.388 40.8ZM 200.288 40.8C 206.204 40.8 211.352 43.0139 215.776 47.502L 217.2 46.098C 212.424 41.2528 206.772 38.8 200.288 38.8L 200.288 40.8ZM 215.776 47.502C 220.178 51.9679 222.388 57.5429 222.388 64.3L 224.388 64.3C 224.388 57.0571 221.998 50.9654 217.2 46.098L 215.776 47.502ZM 222.388 64.3C 222.388 71.1527 220.359 76.8076 216.34 81.3363L 217.836 82.6637C 222.218 77.7257 224.388 71.5806 224.388 64.3L 222.388 64.3ZM 216.34 81.337C 212.417 85.7661 207.201 88 200.588 88L 200.588 90C 207.709 90 213.493 87.5672 217.837 82.663L 216.34 81.337ZM 200.588 88C 197.457 88.0023 194.704 87.6236 192.182 86.8442L 191.594 88.7558C 194.272 89.5764 197.32 89.9977 200.588 90L 200.588 88ZM 192.205 86.8513C 189.674 86.0107 187.801 85.0624 186.422 83.926L 185.155 85.474C 186.709 86.7376 188.903 87.856 191.572 88.7487L 192.205 86.8513ZM 186.439 83.9407C 185.068 82.7663 183.927 81.6257 182.957 80.4598L 181.42 81.7402C 182.45 82.9743 183.709 84.2337 185.137 85.4593L 186.439 83.9407ZM 182.957 80.4598C 181.989 79.2987 181.453 78.3859 181.244 77.7059L 179.333 78.2941C 179.657 79.3474 180.388 80.5013 181.42 81.7402L 182.957 80.4598ZM 181.211 77.6154L 180.711 76.4154L 178.865 77.1846L 179.365 78.3846L 181.211 77.6154ZM 180.182 77.7191L 182.982 76.5191L 182.194 74.6809L 179.394 75.8809L 180.182 77.7191ZM 181.618 75.8425C 181.699 76.1592 181.858 76.6013 182.069 77.0939L 183.907 76.3061C 183.718 75.8654 183.611 75.5741 183.558 75.3575L 181.618 75.8425ZM 182.12 77.1961C 182.414 77.7076 183.054 78.5992 183.999 79.8139L 185.578 78.5861C 184.656 77.4008 184.096 76.6257 183.857 76.2039L 182.12 77.1961ZM 183.999 79.8139C 184.972 81.0618 186.126 82.2163 187.374 83.1894L 188.602 81.6106C 187.45 80.717 186.471 79.7382 185.578 78.5861L 183.999 79.8139ZM 187.395 83.2051C 188.739 84.1902 190.613 85.0935 192.872 85.8487L 193.505 83.9513C 191.364 83.2398 189.77 82.4764 188.581 81.5949L 187.395 83.2051ZM 192.88 85.8514C 195.227 86.6069 197.848 86.9973 200.588 87L 200.588 85C 197.995 85.0027 195.683 84.6597 193.496 83.9486L 192.88 85.8514ZM 200.588 87C 206.972 87 212.099 84.8353 215.848 80.4498L 214.328 79.1502C 211.01 83.0313 206.471 85 200.588 85L 200.588 87ZM 215.854 80.4438C 219.492 76.092 221.375 70.5973 221.388 64.3L 219.388 64.3C 219.402 70.2693 217.751 75.108 214.323 79.1562L 215.854 80.4438ZM 221.388 64.3C 221.388 58.1747 219.255 52.8916 215.007 48.5044L 213.57 49.8956C 217.455 53.9084 219.388 58.6919 219.388 64.3L 221.388 64.3ZM 215.018 48.5161C 210.838 44.0578 205.778 41.8 199.888 41.8L 199.888 43.8C 205.198 43.8 209.738 45.8089 213.559 49.8839L 215.018 48.5161ZM 199.888 41.8L 186.388 41.8L 186.388 43.8L 199.888 43.8L 199.888 41.8ZM 187.388 42.8L 187.388 18L 185.388 18L 185.388 42.8L 187.388 42.8ZM 186.388 19L 215.988 19L 215.988 17L 186.388 17L 186.388 19ZM 214.988 18L 214.988 21L 216.988 21L 216.988 18L 214.988 18ZM 215.988 20L 189.388 20L 189.388 22L 215.988 22L 215.988 20ZM 188.388 21L 188.388 39.8L 190.388 39.8L 190.388 21L 188.388 21ZM 237.411 18L 237.411 17L 236.411 17L 236.411 18L 237.411 18ZM 276.611 18L 277.397 18.6186L 278.671 17L 276.611 17L 276.611 18ZM 255.511 44.8L 254.725 44.1814L 253.64 45.5594L 255.379 45.7912L 255.511 44.8ZM 263.911 46.9L 263.552 47.8333L 263.562 47.8374L 263.573 47.8412L 263.911 46.9ZM 271.211 50.9L 270.603 51.6944L 270.611 51.7001L 270.619 51.7057L 271.211 50.9ZM 276.611 57.5L 277.51 57.0616L 277.51 57.0616L 276.611 57.5ZM 272.411 83.1L 273.106 83.8188L 273.106 83.8186L 272.411 83.1ZM 246.811 87.7L 246.515 88.6553L 246.515 88.6553L 246.811 87.7ZM 240.011 84.6L 239.427 85.4115L 239.434 85.4169L 239.442 85.4222L 240.011 84.6ZM 232.911 77.9L 232.03 78.3741L 232.044 78.3995L 232.059 78.4241L 232.911 77.9ZM 232.211 76.6L 231.817 75.6809L 230.812 76.1115L 231.33 77.0741L 232.211 76.6ZM 235.011 75.4L 235.811 74.8L 235.339 74.1713L 234.617 74.4809L 235.011 75.4ZM 235.811 76.6L 234.963 77.13L 234.979 77.1561L 234.997 77.1812L 235.811 76.6ZM 242.311 82.3L 242.848 81.4563L 242.848 81.4563L 242.311 82.3ZM 248.111 84.9L 247.795 85.8487L 247.81 85.8539L 247.826 85.8585L 248.111 84.9ZM 270.411 80.9L 271.118 81.6071L 271.118 81.6071L 270.411 80.9ZM 269.911 53.9L 269.283 54.6782L 269.283 54.6782L 269.911 53.9ZM 255.111 47.8L 255.274 46.8133L 255.269 46.8126L 255.111 47.8ZM 250.111 47L 249.323 46.3846L 248.28 47.7198L 249.953 47.9874L 250.111 47ZM 270.411 21L 271.199 21.6154L 272.46 20L 270.411 20L 270.411 21ZM 237.411 21L 236.411 21L 236.411 22L 237.411 22L 237.411 21ZM 237.411 19L 276.611 19L 276.611 17L 237.411 17L 237.411 19ZM 275.825 17.3814L 254.725 44.1814L 256.297 45.4186L 277.397 18.6186L 275.825 17.3814ZM 255.379 45.7912C 258.323 46.1822 261.01 46.8535 263.552 47.8333L 264.27 45.9667C 261.612 44.9465 258.699 44.2178 255.643 43.8088L 255.379 45.7912ZM 263.573 47.8412C 266.1 48.7452 268.399 50.0047 270.603 51.6944L 271.818 50.1056C 269.49 48.3286 266.921 46.9215 264.249 45.9588L 263.573 47.8412ZM 270.619 51.7057C 272.789 53.2918 274.436 55.3061 275.712 57.9384L 277.51 57.0616C 276.12 54.2272 274.166 51.8415 271.803 50.0943L 270.619 51.7057ZM 275.712 57.9384C 276.999 60.5601 277.617 63.439 277.611 66.8L 279.611 66.8C 279.605 63.2276 278.889 59.9066 277.51 57.0616L 275.712 57.9384ZM 277.611 66.8C 277.611 73.4523 275.617 78.6058 271.716 82.3814L 273.106 83.8186C 277.472 79.5942 279.611 73.881 279.611 66.8L 277.611 66.8ZM 271.716 82.3812C 267.877 86.0936 262.616 88 255.811 88L 255.811 90C 263.005 90 268.811 87.9731 273.106 83.8188L 271.716 82.3812ZM 255.811 88C 252.683 88.0026 249.831 87.5912 247.107 86.7447L 246.515 88.6553C 249.391 89.5422 252.539 89.9974 255.811 90L 255.811 88ZM 247.107 86.7447C 244.367 85.8988 242.238 84.9305 240.58 83.7778L 239.442 85.4222C 241.25 86.6695 243.655 87.7678 246.515 88.6553L 247.107 86.7447ZM 240.595 83.7885C 238.953 82.6069 237.539 81.4496 236.299 80.274L 234.923 81.726C 236.217 82.9505 237.735 84.1931 239.427 85.4115L 240.595 83.7885ZM 236.299 80.274C 235.066 79.1078 234.25 78.1742 233.763 77.3759L 232.059 78.4241C 232.639 79.3591 233.623 80.4922 234.923 81.726L 236.299 80.274ZM 233.791 77.4259L 233.091 76.1259L 231.33 77.0741L 232.03 78.3741L 233.791 77.4259ZM 232.605 77.5191L 235.405 76.3191L 234.617 74.4809L 231.817 75.6809L 232.605 77.5191ZM 234.211 76C 234.395 76.2442 234.637 76.6091 234.963 77.13L 236.659 76.07C 236.318 75.5243 236.027 75.0891 235.811 74.8L 234.211 76ZM 234.997 77.1812C 235.396 77.7397 236.269 78.638 237.523 79.826L 238.899 78.374C 237.619 77.162 236.892 76.3936 236.625 76.0188L 234.997 77.1812ZM 237.523 79.826C 238.825 81.058 240.268 82.1836 241.774 83.1437L 242.848 81.4563C 241.421 80.5497 240.13 79.542 238.899 78.374L 237.523 79.826ZM 241.774 83.1437C 243.303 84.1137 245.348 85.0318 247.795 85.8487L 248.427 83.9513C 246.074 83.1682 244.252 82.3529 242.848 81.4563L 241.774 83.1437ZM 247.826 85.8585C 250.364 86.6102 253.073 86.9975 255.811 87L 255.811 85C 253.215 85.0025 250.791 84.6565 248.396 83.9415L 247.826 85.8585ZM 255.811 87C 262.322 87 267.477 85.2485 271.118 81.6071L 269.704 80.1929C 266.545 83.3515 261.966 85 255.811 85L 255.811 87ZM 271.118 81.6071C 274.811 77.9146 276.611 72.939 276.611 66.8L 274.611 66.8C 274.611 72.5276 272.945 76.952 269.704 80.1929L 271.118 81.6071ZM 276.611 66.8C 276.611 61.0098 274.607 56.4051 270.539 53.1218L 269.283 54.6782C 272.814 57.5282 274.611 61.5235 274.611 66.8L 276.611 66.8ZM 270.539 53.1218C 266.621 49.9731 261.451 47.8382 255.274 46.8133L 254.948 48.7867C 260.904 49.7618 265.601 51.6936 269.283 54.6782L 270.539 53.1218ZM 255.269 46.8126L 250.269 46.0126L 249.953 47.9874L 254.953 48.7874L 255.269 46.8126ZM 250.899 47.6154L 271.199 21.6154L 269.623 20.3846L 249.323 46.3846L 250.899 47.6154ZM 270.411 20L 237.411 20L 237.411 22L 270.411 22L 270.411 20ZM 238.411 21L 238.411 18L 236.411 18L 236.411 21L 238.411 21ZM 302.075 85L 302.075 84L 301.075 84L 301.075 85L 302.075 85ZM 329.675 85L 329.675 86L 331.104 86L 330.615 84.6576L 329.675 85ZM 317.575 51.8L 317.079 50.9318L 316.347 51.3501L 316.635 52.1424L 317.575 51.8ZM 323.175 48.6L 322.693 47.7241L 322.686 47.7279L 322.679 47.7318L 323.175 48.6ZM 297.275 21L 297.275 20L 296.275 20L 296.275 21L 297.275 21ZM 297.275 88L 297.275 89L 298.275 89L 298.275 88L 297.275 88ZM 294.275 88L 293.275 88L 293.275 89L 294.275 89L 294.275 88ZM 294.275 18L 294.275 17L 293.275 17L 293.275 18L 294.275 18ZM 326.375 22.9L 325.785 23.7072L 325.793 23.7129L 326.375 22.9ZM 324.675 51.2L 325.163 52.0729L 325.163 52.0727L 324.675 51.2ZM 321.275 53.1L 320.787 52.2271L 320.044 52.6422L 320.335 53.442L 321.275 53.1ZM 333.975 88L 333.975 89L 335.403 89L 334.915 87.658L 333.975 88ZM 302.075 88L 301.075 88L 301.075 89L 302.075 89L 302.075 88ZM 302.075 86L 329.675 86L 329.675 84L 302.075 84L 302.075 86ZM 330.615 84.6576L 318.515 51.4576L 316.635 52.1424L 328.735 85.3424L 330.615 84.6576ZM 318.071 52.6682L 323.671 49.4682L 322.679 47.7318L 317.079 50.9318L 318.071 52.6682ZM 323.657 49.4759C 328.597 46.7554 331.075 42.3736 331.075 36.5L 329.075 36.5C 329.075 41.6931 326.953 45.3779 322.693 47.7241L 323.657 49.4759ZM 331.075 36.5C 331.075 31.0356 328.97 26.8278 324.724 24.0392C 320.551 21.2986 314.419 20 306.475 20L 306.475 22C 314.264 22 319.932 23.2847 323.626 25.7108C 327.247 28.0888 329.075 31.6311 329.075 36.5L 331.075 36.5ZM 306.475 20L 297.275 20L 297.275 22L 306.475 22L 306.475 20ZM 296.275 21L 296.275 88L 298.275 88L 298.275 21L 296.275 21ZM 297.275 87L 294.275 87L 294.275 89L 297.275 89L 297.275 87ZM 295.275 88L 295.275 18L 293.275 18L 293.275 88L 295.275 88ZM 294.275 19L 306.475 19L 306.475 17L 294.275 17L 294.275 19ZM 306.475 19C 315.179 19 321.564 20.6203 325.785 23.7072L 326.965 22.0928C 322.253 18.6464 315.371 17 306.475 17L 306.475 19ZM 325.793 23.7129C 329.977 26.7107 332.075 30.9302 332.075 36.5L 334.075 36.5C 334.075 30.3365 331.706 25.4893 326.957 22.0871L 325.793 23.7129ZM 332.075 36.5C 332.075 42.822 329.456 47.3791 324.187 50.3273L 325.163 52.0727C 331.094 48.7542 334.075 43.5113 334.075 36.5L 332.075 36.5ZM 324.187 50.3271L 320.787 52.2271L 321.763 53.9729L 325.163 52.0729L 324.187 50.3271ZM 320.335 53.442L 333.035 88.342L 334.915 87.658L 322.215 52.758L 320.335 53.442ZM 333.975 87L 302.075 87L 302.075 89L 333.975 89L 333.975 87ZM 303.075 88L 303.075 85L 301.075 85L 301.075 88L 303.075 88ZM 355.455 88L 355.455 89L 356.455 89L 356.455 88L 355.455 88ZM 352.455 88L 351.455 88L 351.455 89L 352.455 89L 352.455 88ZM 352.455 28.9L 353.455 28.9L 351.495 28.6218L 352.455 28.9ZM 347.155 47.2L 347.155 48.2L 347.907 48.2L 348.116 47.4782L 347.155 47.2ZM 344.055 47.2L 343.094 46.9235L 342.727 48.2L 344.055 48.2L 344.055 47.2ZM 352.455 18L 352.455 17L 351.703 17L 351.494 17.7235L 352.455 18ZM 355.455 18L 356.455 18L 356.455 17L 355.455 17L 355.455 18ZM 355.455 87L 352.455 87L 352.455 89L 355.455 89L 355.455 87ZM 353.455 88L 353.455 28.9L 351.455 28.9L 351.455 88L 353.455 88ZM 351.495 28.6218L 346.195 46.9218L 348.116 47.4782L 353.416 29.1782L 351.495 28.6218ZM 347.155 46.2L 344.055 46.2L 344.055 48.2L 347.155 48.2L 347.155 46.2ZM 345.016 47.4765L 353.416 18.2765L 351.494 17.7235L 343.094 46.9235L 345.016 47.4765ZM 352.455 19L 355.455 19L 355.455 17L 352.455 17L 352.455 19ZM 354.455 18L 354.455 88L 356.455 88L 356.455 18L 354.455 18ZM 399.13 88L 399.13 89L 400.13 89L 400.13 88L 399.13 88ZM 396.13 88L 395.13 88L 395.13 89L 396.13 89L 396.13 88ZM 396.13 67.6L 397.13 67.6L 397.13 66.6L 396.13 66.6L 396.13 67.6ZM 368.73 67.6L 367.73 67.6L 367.73 68.6L 368.73 68.6L 368.73 67.6ZM 368.73 64.6L 367.864 64.1001L 367.73 64.3321L 367.73 64.6L 368.73 64.6ZM 395.63 18L 395.63 17L 395.052 17L 394.764 17.5001L 395.63 18ZM 399.13 18L 400.13 18L 400.13 17L 399.13 17L 399.13 18ZM 399.13 64.6L 398.13 64.6L 398.13 65.6L 399.13 65.6L 399.13 64.6ZM 407.13 64.6L 408.13 64.6L 408.13 63.6L 407.13 63.6L 407.13 64.6ZM 407.13 67.6L 407.13 68.6L 408.13 68.6L 408.13 67.6L 407.13 67.6ZM 399.13 67.6L 399.13 66.6L 398.13 66.6L 398.13 67.6L 399.13 67.6ZM 396.13 64.6L 396.13 65.6L 397.13 65.6L 397.13 64.6L 396.13 64.6ZM 396.13 23.1L 397.13 23.1L 397.13 19.3598L 395.263 22.6009L 396.13 23.1ZM 372.23 64.6L 371.363 64.1009L 370.5 65.6L 372.23 65.6L 372.23 64.6ZM 399.13 87L 396.13 87L 396.13 89L 399.13 89L 399.13 87ZM 397.13 88L 397.13 67.6L 395.13 67.6L 395.13 88L 397.13 88ZM 396.13 66.6L 368.73 66.6L 368.73 68.6L 396.13 68.6L 396.13 66.6ZM 369.73 67.6L 369.73 64.6L 367.73 64.6L 367.73 67.6L 369.73 67.6ZM 369.596 65.0999L 396.496 18.4999L 394.764 17.5001L 367.864 64.1001L 369.596 65.0999ZM 395.63 19L 399.13 19L 399.13 17L 395.63 17L 395.63 19ZM 398.13 18L 398.13 64.6L 400.13 64.6L 400.13 18L 398.13 18ZM 399.13 65.6L 407.13 65.6L 407.13 63.6L 399.13 63.6L 399.13 65.6ZM 406.13 64.6L 406.13 67.6L 408.13 67.6L 408.13 64.6L 406.13 64.6ZM 407.13 66.6L 399.13 66.6L 399.13 68.6L 407.13 68.6L 407.13 66.6ZM 398.13 67.6L 398.13 88L 400.13 88L 400.13 67.6L 398.13 67.6ZM 397.13 64.6L 397.13 23.1L 395.13 23.1L 395.13 64.6L 397.13 64.6ZM 395.263 22.6009L 371.363 64.1009L 373.096 65.0991L 396.996 23.5991L 395.263 22.6009ZM 372.23 65.6L 396.13 65.6L 396.13 63.6L 372.23 63.6L 372.23 65.6ZM 463.126 85L 464.126 85L 464.126 84L 463.126 84L 463.126 85ZM 463.126 88L 463.126 89L 464.126 89L 464.126 88L 463.126 88ZM 421.326 88L 420.326 88L 420.326 89L 421.326 89L 421.326 88ZM 421.326 18L 421.326 17L 420.326 17L 420.326 18L 421.326 18ZM 424.326 18L 425.326 18L 425.326 17L 424.326 17L 424.326 18ZM 424.326 85L 423.326 85L 423.326 86L 424.326 86L 424.326 85ZM 462.126 85L 462.126 88L 464.126 88L 464.126 85L 462.126 85ZM 463.126 87L 421.326 87L 421.326 89L 463.126 89L 463.126 87ZM 422.326 88L 422.326 18L 420.326 18L 420.326 88L 422.326 88ZM 421.326 19L 424.326 19L 424.326 17L 421.326 17L 421.326 19ZM 423.326 18L 423.326 85L 425.326 85L 425.326 18L 423.326 18ZM 424.326 86L 463.126 86L 463.126 84L 424.326 84L 424.326 86ZM 478.548 39.8L 477.548 39.8L 477.548 40.8L 478.548 40.8L 478.548 39.8ZM 505.648 46.8L 506.361 46.098L 506.361 46.098L 505.648 46.8ZM 506.248 82L 505.5 81.3363L 505.5 81.337L 506.248 82ZM 481.048 87.8L 480.732 88.7487L 480.743 88.7524L 480.754 88.7558L 481.048 87.8ZM 474.948 84.7L 474.298 85.4593L 474.306 85.4667L 474.315 85.474L 474.948 84.7ZM 471.348 81.1L 472.117 80.4598L 472.117 80.4598L 471.348 81.1ZM 469.448 78L 470.404 77.7059L 470.39 77.6599L 470.372 77.6154L 469.448 78ZM 468.948 76.8L 468.555 75.8809L 467.645 76.2708L 468.025 77.1846L 468.948 76.8ZM 471.748 75.6L 472.719 75.3575L 472.434 74.2183L 471.355 74.6809L 471.748 75.6ZM 472.148 76.7L 471.229 77.0939L 471.252 77.1465L 471.28 77.1961L 472.148 76.7ZM 473.948 79.2L 474.738 78.5861L 474.738 78.5861L 473.948 79.2ZM 477.148 82.4L 476.534 83.1894L 476.545 83.1973L 476.555 83.2051L 477.148 82.4ZM 482.348 84.9L 482.032 85.8487L 482.041 85.8514L 482.348 84.9ZM 504.248 79.8L 505.009 80.4498L 505.014 80.4438L 504.248 79.8ZM 503.448 49.2L 502.719 49.8839L 502.724 49.8898L 502.73 49.8956L 503.448 49.2ZM 475.548 42.8L 474.548 42.8L 474.548 43.8L 475.548 43.8L 475.548 42.8ZM 475.548 18L 475.548 17L 474.548 17L 474.548 18L 475.548 18ZM 505.148 18L 506.148 18L 506.148 17L 505.148 17L 505.148 18ZM 505.148 21L 505.148 22L 506.148 22L 506.148 21L 505.148 21ZM 478.548 21L 478.548 20L 477.548 20L 477.548 21L 478.548 21ZM 478.548 40.8L 489.448 40.8L 489.448 38.8L 478.548 38.8L 478.548 40.8ZM 489.448 40.8C 495.364 40.8 500.512 43.0139 504.936 47.502L 506.361 46.098C 501.585 41.2528 495.933 38.8 489.448 38.8L 489.448 40.8ZM 504.936 47.502C 509.338 51.9679 511.548 57.5429 511.548 64.3L 513.548 64.3C 513.548 57.0571 511.159 50.9654 506.361 46.098L 504.936 47.502ZM 511.548 64.3C 511.548 71.1527 509.519 76.8076 505.5 81.3363L 506.996 82.6637C 511.378 77.7257 513.548 71.5806 513.548 64.3L 511.548 64.3ZM 505.5 81.337C 501.577 85.7661 496.361 88 489.748 88L 489.748 90C 496.869 90 502.653 87.5672 506.997 82.663L 505.5 81.337ZM 489.748 88C 486.617 88.0023 483.865 87.6236 481.343 86.8442L 480.754 88.7558C 483.432 89.5764 486.48 89.9977 489.748 90L 489.748 88ZM 481.365 86.8513C 478.834 86.0107 476.961 85.0624 475.582 83.926L 474.315 85.474C 475.869 86.7376 478.063 87.856 480.732 88.7487L 481.365 86.8513ZM 475.599 83.9407C 474.228 82.7663 473.087 81.6257 472.117 80.4598L 470.58 81.7402C 471.61 82.9743 472.869 84.2337 474.298 85.4593L 475.599 83.9407ZM 472.117 80.4598C 471.149 79.2987 470.613 78.3859 470.404 77.7059L 468.493 78.2941C 468.817 79.3474 469.548 80.5013 470.58 81.7402L 472.117 80.4598ZM 470.372 77.6154L 469.872 76.4154L 468.025 77.1846L 468.525 78.3846L 470.372 77.6154ZM 469.342 77.7191L 472.142 76.5191L 471.355 74.6809L 468.555 75.8809L 469.342 77.7191ZM 470.778 75.8425C 470.859 76.1592 471.019 76.6013 471.229 77.0939L 473.068 76.3061C 472.878 75.8654 472.771 75.5741 472.719 75.3575L 470.778 75.8425ZM 471.28 77.1961C 471.574 77.7076 472.215 78.5992 473.159 79.8139L 474.738 78.5861C 473.816 77.4008 473.256 76.6257 473.017 76.2039L 471.28 77.1961ZM 473.159 79.8139C 474.132 81.0618 475.287 82.2163 476.534 83.1894L 477.762 81.6106C 476.61 80.717 475.631 79.7382 474.738 78.5861L 473.159 79.8139ZM 476.555 83.2051C 477.9 84.1902 479.773 85.0935 482.032 85.8487L 482.665 83.9513C 480.524 83.2398 478.931 82.4764 477.742 81.5949L 476.555 83.2051ZM 482.041 85.8514C 484.387 86.6069 487.008 86.9973 489.748 87L 489.748 85C 487.155 85.0027 484.843 84.6597 482.656 83.9486L 482.041 85.8514ZM 489.748 87C 496.132 87 501.26 84.8353 505.009 80.4498L 503.488 79.1502C 500.171 83.0313 495.631 85 489.748 85L 489.748 87ZM 505.014 80.4438C 508.652 76.092 510.535 70.5973 510.548 64.3L 508.548 64.3C 508.562 70.2693 506.911 75.108 503.483 79.1562L 505.014 80.4438ZM 510.548 64.3C 510.548 58.1747 508.415 52.8916 504.167 48.5044L 502.73 49.8956C 506.615 53.9084 508.548 58.6919 508.548 64.3L 510.548 64.3ZM 504.178 48.5161C 499.998 44.0578 494.938 41.8 489.048 41.8L 489.048 43.8C 494.359 43.8 498.899 45.8089 502.719 49.8839L 504.178 48.5161ZM 489.048 41.8L 475.548 41.8L 475.548 43.8L 489.048 43.8L 489.048 41.8ZM 476.548 42.8L 476.548 18L 474.548 18L 474.548 42.8L 476.548 42.8ZM 475.548 19L 505.148 19L 505.148 17L 475.548 17L 475.548 19ZM 504.148 18L 504.148 21L 506.148 21L 506.148 18L 504.148 18ZM 505.148 20L 478.548 20L 478.548 22L 505.148 22L 505.148 20ZM 477.548 21L 477.548 39.8L 479.548 39.8L 479.548 21L 477.548 21Z"/>
</defs>
</svg>
