<svg width="108" height="118" viewBox="0 0 108 118" version="1.1" xmlns="http://www.w3.org/2000/svg" xmlns:xlink="http://www.w3.org/1999/xlink" xmlns:figma="http://www.figma.com/figma/ns">
<title>Group</title>
<desc>Created using Figma</desc>
<g id="Canvas" transform="translate(-3077 1282)" figma:type="canvas">
<g id="Group" style="mix-blend-mode:normal;" figma:type="frame">
<g id="Rectangle 6" style="mix-blend-mode:normal;" figma:type="vector">
<use xlink:href="#path0_fill" transform="translate(3098 -1256)" fill="#FFFFFF" style="mix-blend-mode:normal;"/>
</g>
<g id="S" style="mix-blend-mode:normal;" figma:type="vector">
<use xlink:href="#path1_fill" transform="translate(3146.84 -1213.92)" fill="#FF725C" style="mix-blend-mode:normal;"/>
</g>
<g id="C" style="mix-blend-mode:normal;" figma:type="vector">
<use xlink:href="#path2_fill" transform="translate(3077.98 -1281.96)" fill="#FF725C" style="mix-blend-mode:normal;"/>
</g>
</g>
</g>
<defs>
<path id="path0_fill" d="M 0 0L 68 0L 68 68L 0 68L 0 0Z"/>
<path id="path1_fill" d="M 26.4629 36.1582C 26.4629 34.4538 25.8542 33.1257 24.6367 32.1738C 23.4414 31.222 21.3275 30.237 18.2949 29.2188C 15.2624 28.2005 12.7832 27.2155 10.8574 26.2637C 4.5931 23.1868 1.46094 18.959 1.46094 13.5801C 1.46094 10.9017 2.23568 8.54427 3.78516 6.50781C 5.35677 4.44922 7.57031 2.85547 10.4258 1.72656C 13.2812 0.575522 16.4909 0 20.0547 0C 23.5299 0 26.64 0.61979 29.3848 1.85938C 32.1517 3.09896 34.2988 4.86979 35.8262 7.17188C 37.3535 9.45182 38.1172 12.0638 38.1172 15.0078L 26.4961 15.0078C 26.4961 13.0378 25.8874 11.5104 24.6699 10.4258C 23.4746 9.34115 21.8477 8.79883 19.7891 8.79883C 17.7083 8.79883 16.0592 9.26367 14.8418 10.1934C 13.6465 11.1009 13.0488 12.263 13.0488 13.6797C 13.0488 14.9193 13.7129 16.0482 15.041 17.0664C 16.3691 18.0625 18.7044 19.1029 22.0469 20.1875C 25.3893 21.25 28.1341 22.401 30.2812 23.6406C 35.5052 26.651 38.1172 30.8014 38.1172 36.0918C 38.1172 40.3197 36.5234 43.64 33.3359 46.0527C 30.1484 48.4655 25.7767 49.6719 20.2207 49.6719C 16.3027 49.6719 12.75 48.9746 9.5625 47.5801C 6.39714 46.1634 4.00651 44.2376 2.39062 41.8027C 0.796875 39.3457 0 36.5234 0 33.3359L 11.6875 33.3359C 11.6875 35.9258 12.3516 37.8405 13.6797 39.0801C 15.0299 40.2975 17.2103 40.9062 20.2207 40.9062C 22.1465 40.9062 23.6628 40.4967 24.7695 39.6777C 25.8984 38.8366 26.4629 37.6634 26.4629 36.1582Z"/>
<path id="path2_fill" d="M 40.4746 32.6719C 40.3197 36.0365 39.4121 39.0137 37.752 41.6035C 36.0918 44.1712 33.7565 46.1634 30.7461 47.5801C 27.7578 48.9967 24.3379 49.7051 20.4863 49.7051C 14.1335 49.7051 9.13086 47.6354 5.47852 43.4961C 1.82617 39.3568 0 33.513 0 25.9648L 0 23.5742C 0 18.8372 0.81901 14.6979 2.45703 11.1562C 4.11719 7.59245 6.49674 4.84766 9.5957 2.92188C 12.6947 0.97396 16.2806 0 20.3535 0C 26.2194 0 30.9342 1.54948 34.498 4.64844C 38.0619 7.72526 40.0872 11.9753 40.5742 17.3984L 28.9531 17.3984C 28.8646 14.4544 28.123 12.3405 26.7285 11.0566C 25.334 9.77279 23.209 9.13086 20.3535 9.13086C 17.4538 9.13086 15.3288 10.2155 13.9785 12.3848C 12.6283 14.554 11.9199 18.0182 11.8535 22.7773L 11.8535 26.1973C 11.8535 31.3548 12.4954 35.0404 13.7793 37.2539C 15.0853 39.4674 17.321 40.5742 20.4863 40.5742C 23.1647 40.5742 25.2122 39.9434 26.6289 38.6816C 28.0456 37.4199 28.7982 35.4167 28.8867 32.6719L 40.4746 32.6719Z"/>
</defs>
</svg>
